<svg xmlns="http://www.w3.org/2000/svg" width="348.252" height="296.895">
  <g style="display:inline" transform="translate(-234.446 -44.785)">
    <circle cx="319.464" cy="305.961" r="22.585" style="font-size:medium;font-family:Times-Roman;fill:#eee;stroke:#000;stroke-width:1.25472"/>
    <circle cx="409.804" cy="305.961" r="22.585" style="font-size:medium;font-family:Times-Roman;fill:#eee;stroke:#000;stroke-width:1.25472"/>
    <ellipse cx="500.144" cy="305.961" rx="21.33" ry="22.585" style="font-size:medium;font-family:Times-Roman;fill:#eee;stroke:#000;stroke-width:1.25472"/>
    <ellipse cx="274.295" cy="238.206" rx="21.33" ry="22.585" style="font-size:medium;font-family:Times-Roman;fill:#eee;stroke:#000;stroke-width:1.25472"/>
    <ellipse cx="364.634" cy="238.206" rx="21.33" ry="22.585" style="font-size:medium;font-family:Times-Roman;fill:#eee;stroke:#000;stroke-width:1.25472"/>
    <path d="M352.337 257.031c-3.764 5.02-8.783 11.293-12.547 17.567" style="font-size:medium;font-family:Times-Roman;fill:none;stroke:#000;stroke-width:1.25472"/>
    <path d="m78 164-8 6 3-10z" style="font-size:medium;font-family:Times-Roman;fill:#000;stroke:#000" transform="translate(244.681 71.588) scale(1.25472)"/>
    <path d="M376.931 257.406c3.765 5.02 8.783 11.293 12.548 17.567" style="font-size:medium;font-family:Times-Roman;fill:none;stroke:#000;stroke-width:1.25472"/>
    <path d="m119 160 3 10-8-6z" style="font-size:medium;font-family:Times-Roman;fill:#000;stroke:#000" transform="translate(243.431 72.213) scale(1.25472)"/>
    <circle cx="545.313" cy="238.206" r="22.585" style="font-size:medium;font-family:Times-Roman;fill:#eee;stroke:#000;stroke-width:1.25472"/>
    <path d="M532.766 257.027c-3.764 6.273-7.528 12.547-12.547 18.82" style="font-size:medium;font-family:Times-Roman;fill:none;stroke:#000;stroke-width:1.25472"/>
    <path d="m217 159 6 4-9 6z" style="font-size:medium;font-family:Times-Roman;fill:#000;stroke:#000" transform="translate(244.181 73.838) scale(1.25472)"/>
    <circle cx="319.464" cy="170.451" r="22.585" style="font-size:medium;font-family:Times-Roman;fill:#eee;stroke:#000;stroke-width:1.25472"/>
    <path d="M306.917 189.272c-3.764 6.274-7.528 12.547-12.547 18.82" style="font-size:medium;font-family:Times-Roman;fill:none;stroke:#000;stroke-width:1.25472"/>
    <path d="m37 105 6 4-9 6z" style="font-size:medium;font-family:Times-Roman;fill:#000;stroke:#000" transform="translate(244.181 73.838) scale(1.25472)"/>
    <path d="M332.012 189.272c3.764 6.274 7.528 12.547 12.547 18.82" style="font-size:medium;font-family:Times-Roman;fill:none;stroke:#000;stroke-width:1.25472"/>
    <path d="m77 109 6-4 3 10z" style="font-size:medium;font-family:Times-Roman;fill:#000;stroke:#000" transform="translate(244.181 73.838) scale(1.25472)"/>
    <ellipse cx="500.144" cy="170.451" rx="21.33" ry="22.585" style="font-size:medium;font-family:Times-Roman;fill:#eee;stroke:#000;stroke-width:1.25472"/>
    <path d="M512.816 189.277c3.764 5.019 8.783 11.292 12.547 17.566" style="font-size:medium;font-family:Times-Roman;fill:none;stroke:#000;stroke-width:1.25472"/>
    <path d="m230 116-8-6 5-4z" style="font-size:medium;font-family:Times-Roman;fill:#000;stroke:#000" transform="translate(243.681 71.963) scale(1.25472)"/>
    <circle cx="409.804" cy="102.697" r="22.585" style="font-size:medium;font-family:Times-Roman;fill:#eee;stroke:#000;stroke-width:1.25472"/>
    <path d="M390.983 116.498c-13.802 10.038-28.858 21.33-42.66 32.623" style="font-size:medium;font-family:Times-Roman;fill:none;stroke:#000;stroke-width:1.25472"/>
    <path d="m81 57 4 6-10 3z" style="font-size:medium;font-family:Times-Roman;fill:#000;stroke:#000" transform="translate(244.181 73.838) scale(1.25472)"/>
    <path d="M428.625 116.498c13.802 10.038 28.858 21.33 42.66 32.623" style="font-size:medium;font-family:Times-Roman;fill:none;stroke:#000;stroke-width:1.25472"/>
    <path d="m179 63 4-6 6 9z" style="font-size:medium;font-family:Times-Roman;fill:#000;stroke:#000" transform="translate(244.181 73.838) scale(1.25472)"/>
  </g>
  <g style="display:inline">
    <g style="color:#000;font-stretch:condensed;font-size:14.6667px;line-height:125%;font-family:Arial;-inkscape-font-specification:&quot;Arial, Condensed&quot;;text-align:center;text-decoration:none;text-decoration-line:none;text-decoration-color:#000;writing-mode:tb-rl;text-anchor:middle;overflow:visible;opacity:1;fill:#000;fill-opacity:1;stroke:#0055d4;stroke-width:0;stroke-linecap:round;stroke-linejoin:round">
      <path stroke="none" d="m34.587 199.063 4.032-10.498h1.497l4.297 10.498H42.83l-1.225-3.18h-4.39l-1.153 3.18zm3.03-4.31h3.559l-1.096-2.908q-.501-1.325-.745-2.177-.2 1.01-.565 2.005z" aria-label="A" style="font-style:normal;font-variant:normal;font-weight:400;font-stretch:normal;font-size:14.6667px;font-family:Arial;-inkscape-font-specification:Arial;writing-mode:lr-tb;fill:#000;fill-opacity:1;stroke:#000"/>
    </g>
    <path d="M81.253 131.22v-10.499h3.94q1.202 0 1.926.322.73.316 1.138.982.416.658.416 1.382 0 .673-.366 1.267-.365.595-1.103.96.953.28 1.461.952.516.674.516 1.59 0 .738-.315 1.375-.308.63-.766.974-.459.344-1.153.523-.688.172-1.69.172zm1.39-6.087h2.27q.924 0 1.325-.122.53-.158.795-.523.272-.365.272-.917 0-.522-.25-.916-.252-.401-.717-.544-.466-.15-1.597-.15h-2.098zm0 4.848h2.614q.673 0 .945-.05.48-.086.802-.287.322-.2.53-.58.208-.386.208-.888 0-.587-.301-1.017-.301-.436-.838-.608-.53-.18-1.533-.18h-2.427z" aria-label="B" style="color:#000;font-style:normal;font-variant:normal;font-weight:400;font-stretch:normal;font-size:14.6667px;line-height:125%;font-family:Arial;-inkscape-font-specification:Arial;text-align:center;text-decoration:none;text-decoration-line:none;text-decoration-color:#000;writing-mode:lr-tb;text-anchor:middle;overflow:visible;opacity:1;fill:#000;fill-opacity:1;stroke:#000;stroke-width:0;stroke-linecap:round;stroke-linejoin:round"/>
    <path d="M126.193 199.475v-10.499h3.617q1.225 0 1.87.15.902.208 1.539.752.83.702 1.239 1.798.415 1.088.415 2.492 0 1.196-.28 2.12-.278.924-.715 1.532-.437.602-.96.953-.516.344-1.253.523-.73.179-1.683.179zm1.39-1.24h2.241q1.039 0 1.626-.193.594-.193.945-.544.494-.494.767-1.325.279-.838.279-2.026 0-1.648-.544-2.528-.537-.888-1.31-1.19-.56-.214-1.798-.214h-2.206z" aria-label="D" style="color:#000;font-style:normal;font-variant:normal;font-weight:400;font-stretch:normal;font-size:14.6667px;line-height:125%;font-family:Arial;-inkscape-font-specification:Arial;text-align:center;text-decoration:none;text-decoration-line:none;text-decoration-color:#000;writing-mode:lr-tb;text-anchor:middle;overflow:visible;opacity:1;fill:#000;fill-opacity:1;stroke:#000;stroke-width:0;stroke-linecap:round;stroke-linejoin:round"/>
    <path d="m88.778 263.423 1.39.351q-.437 1.712-1.576 2.614-1.131.895-2.771.895-1.698 0-2.765-.687-1.06-.695-1.618-2.005-.552-1.31-.552-2.815 0-1.64.623-2.857.63-1.225 1.784-1.855 1.16-.637 2.549-.637 1.576 0 2.65.802 1.074.802 1.497 2.256l-1.368.322q-.366-1.146-1.06-1.669-.695-.523-1.748-.523-1.21 0-2.026.58-.81.58-1.139 1.562-.33.974-.33 2.012 0 1.34.387 2.342.394.995 1.218 1.49.823.494 1.783.494 1.167 0 1.977-.674.809-.673 1.095-1.998z" aria-label="C" style="color:#000;font-style:normal;font-variant:normal;font-weight:400;font-stretch:normal;font-size:14.6667px;line-height:125%;font-family:Arial;-inkscape-font-specification:Arial;text-align:center;text-decoration:none;text-decoration-line:none;text-decoration-color:#000;writing-mode:lr-tb;text-anchor:middle;overflow:visible;opacity:1;fill:#000;fill-opacity:1;stroke:#000;stroke-width:0;stroke-linecap:round;stroke-linejoin:round"/>
    <path d="M172.076 267.2v-10.499h7.591v1.24h-6.202v3.215h5.808v1.231h-5.808v3.574h6.445v1.239z" aria-label="E" style="color:#000;font-style:normal;font-variant:normal;font-weight:400;font-stretch:normal;font-size:14.6667px;line-height:125%;font-family:Arial;-inkscape-font-specification:Arial;text-align:center;text-decoration:none;text-decoration-line:none;text-decoration-color:#000;writing-mode:lr-tb;text-anchor:middle;overflow:visible;opacity:1;fill:#000;fill-opacity:1;stroke:#000;stroke-width:0;stroke-linecap:round;stroke-linejoin:round"/>
    <path d="M261.128 267.7v-10.5h1.39v4.311h5.457v-4.31h1.389V267.7h-1.39v-4.949h-5.456v4.949z" aria-label="H" style="color:#000;font-style:normal;font-variant:normal;font-weight:400;font-stretch:normal;font-size:14.6667px;line-height:125%;font-family:Arial;-inkscape-font-specification:Arial;text-align:center;text-decoration:none;text-decoration-line:none;text-decoration-color:#000;writing-mode:lr-tb;text-anchor:middle;overflow:visible;opacity:1;fill:#000;fill-opacity:1;stroke:#000;stroke-width:0;stroke-linecap:round;stroke-linejoin:round"/>
    <path d="M310.69 199.695v-10.499h1.39v10.5z" aria-label="I" style="color:#000;font-style:normal;font-variant:normal;font-weight:400;font-stretch:normal;font-size:14.6667px;line-height:125%;font-family:Arial;-inkscape-font-specification:Arial;text-align:center;text-decoration:none;text-decoration-line:none;text-decoration-color:#000;writing-mode:lr-tb;text-anchor:middle;overflow:visible;opacity:1;fill:#000;fill-opacity:1;stroke:#000;stroke-width:0;stroke-linecap:round;stroke-linejoin:round"/>
    <path d="M266.162 127.257v-1.232l4.448-.007v3.896q-1.024.816-2.113 1.231-1.088.409-2.234.409-1.547 0-2.815-.66-1.26-.665-1.905-1.919-.644-1.253-.644-2.8 0-1.532.637-2.857.645-1.332 1.848-1.977 1.203-.644 2.771-.644 1.139 0 2.056.372.923.365 1.446 1.024.523.66.795 1.72l-1.253.343q-.236-.802-.587-1.26-.351-.459-1.003-.731-.652-.28-1.447-.28-.952 0-1.647.294-.694.287-1.124.76-.423.472-.659 1.038-.4.974-.4 2.112 0 1.404.479 2.35.487.945 1.41 1.403.925.458 1.963.458.902 0 1.762-.343.859-.351 1.303-.745v-1.955z" aria-label="G" style="color:#000;font-style:normal;font-variant:normal;font-weight:400;font-stretch:normal;font-size:14.6667px;line-height:125%;font-family:Arial;-inkscape-font-specification:Arial;text-align:center;text-decoration:none;text-decoration-line:none;text-decoration-color:#000;writing-mode:lr-tb;text-anchor:middle;overflow:visible;opacity:1;fill:#000;fill-opacity:1;stroke:#000;stroke-width:0;stroke-linecap:round;stroke-linejoin:round"/>
    <path d="M172.707 63.436v-10.5h7.083v1.24h-5.694v3.251h4.927v1.24h-4.927v4.769z" aria-label="F" style="color:#000;font-style:normal;font-variant:normal;font-weight:400;font-stretch:normal;font-size:14.6667px;line-height:125%;font-family:Arial;-inkscape-font-specification:Arial;text-align:center;text-decoration:none;text-decoration-line:none;text-decoration-color:#000;writing-mode:lr-tb;text-anchor:middle;overflow:visible;opacity:1;fill:#000;fill-opacity:1;stroke:#000;stroke-width:0;stroke-linecap:round;stroke-linejoin:round"/>
  </g>
</svg>
